<svg xmlns="http://www.w3.org/2000/svg" width="24" height="24" fill="white" viewBox="0 0 24 24">
  <path d="M12 2.2c3.2 0 3.6 0 4.9.1 1.2.1 2 .3 2.5.6.6.3 1.1.7 1.6 1.2.5.5.9 1 .9 1.6.3.5.5 1.3.6 2.5.1 1.3.1 1.7.1 4.9s0 3.6-.1 4.9c-.1 1.2-.3 2-.6 2.5-.3.6-.7 1.1-1.2 1.6-.5.5-1 .9-1.6.9-.5.3-1.3.5-2.5.6-1.3.1-1.7.1-4.9.1s-3.6 0-4.9-.1c-1.2-.1-2-.3-2.5-.6-.6-.3-1.1-.7-1.6-1.2-.5-.5-.9-1-.9-1.6-.3-.5-.5-1.3-.6-2.5C2.2 15.6 2.2 15.2 2.2 12s0-3.6.1-4.9c.1-1.2.3-2 .6-2.5.3-.6.7-1.1 1.2-1.6.5-.5 1-.9 1.6-.9.5-.3 1.3-.5 2.5-.6C8.4 2.2 8.8 2.2 12 2.2zm0 1.8c-3.1 0-3.5 0-4.7.1-1 .1-1.5.2-1.9.4-.5.2-.8.5-1.1.8-.3.3-.6.7-.8 1.1-.2.4-.4.9-.4 1.9-.1 1.1-.1 1.5-.1 4.7s0 3.5.1 4.7c.1 1 .2 1.5.4 1.9.2.5.5.8.8 1.1.3.3.7.6 1.1.8.4.2.9.4 1.9.4 1.1.1 1.5.1 4.7.1s3.5 0 4.7-.1c1-.1 1.5-.2 1.9-.4.5-.2.8-.5 1.1-.8.3-.3.6-.7.8-1.1.2-.4.4-.9.4-1.9.1-1.1.1-1.5.1-4.7s0-3.5-.1-4.7c-.1-1-.2-1.5-.4-1.9-.2-.5-.5-.8-.8-1.1-.3-.3-.7-.6-1.1-.8-.4-.2-.9-.4-1.9-.4-1.1-.1-1.5-.1-4.7-.1zm0 3.3a6.5 6.5 0 110 13 6.5 6.5 0 010-13zm0 2a4.5 4.5 0 100 9 4.5 4.5 0 000-9zm6.7-2.1a1.5 1.5 0 11-3 0 1.5 1.5 0 013 0z"></path>
</svg>
